# xmcd
#
# Track frame offsets:
#	150
#	12065
#	27082
#	49470
#	64650
#	78080
#	92237
#	112263
#	129580
#	144547
#	160478
#	177530
#
# Disc length: 2647 seconds
#
# Revision: 0
# Processed by: cddbd v1.5.2PL0 Copyright (c) Steve Scherf et al.
# Submitted via: EZCDAudioConverter 2.1.7.1
#
DISCID=a40a550c
DTITLE=Amanaz - Africa 2/2
DYEAR=1900
DGENRE=
TTITLE0=Amanaz [Reverb Mix]
TTITLE1=I Am Very Far [Reverb Mix]
TTITLE2=Sunday Morning [Reverb Mix]
TTITLE3=Khala My Friend [Reverb Mix]
TTITLE4=History Of Man [Reverb Mix]
TTITLE5=Nsunka Lwendo [Reverb Mix]
TTITLE6=Africa [Reverb Mix]
TTITLE7=Green Apple [Reverb Mix]
TTITLE8=Making The Scene [Reverb Mix]
TTITLE9=Easy Street [Reverb Mix]
TTITLE10=Big Enough [Reverb Mix]
TTITLE11=Kale [Reverb Mix]
EXTD=
EXTT0=
EXTT1=
EXTT2=
EXTT3=
EXTT4=
EXTT5=
EXTT6=
EXTT7=
EXTT8=
EXTT9=
EXTT10=
EXTT11=
PLAYORDER=
